<svg width="30" height="30" viewBox="0 0 30 30" fill="none" xmlns="http://www.w3.org/2000/svg">
<path fill-rule="evenodd" clip-rule="evenodd" d="M9.32138 8.17862L16.25 15.1072L16.25 25C16.25 25.6904 15.6904 26.25 15 26.25C14.3096 26.25 13.75 25.6904 13.75 25L13.75 16.1428L7.55362 9.94638L4.60355 12.8964C4.28857 13.2114 3.75 12.9883 3.75 12.5429L3.75 5.5C3.75 5.22386 3.97386 5 4.25 5L11.2929 5C11.7383 5 11.9614 5.53857 11.6464 5.85355L9.32138 8.17862Z" fill="black"/>
<path opacity="0.3" fill-rule="evenodd" clip-rule="evenodd" d="M18.9325 13.546L17.3176 11.6375L20.9441 8.56902L18.2286 5.85355C17.9136 5.53857 18.1367 5 18.5821 5L25.7139 5C25.99 5 26.2139 5.22386 26.2139 5.5L26.2139 12.6317C26.2139 13.0772 25.6753 13.3003 25.3603 12.9853L22.7179 10.3429L18.9325 13.546Z" fill="black"/>
</svg>
